<svg xmlns="http://www.w3.org/2000/svg" viewBox="0 0 384 384"><defs><style>.cls-1{fill:none;fill-rule:evenodd;}</style></defs><g id="Capa_2" data-name="Capa 2"><g id="Capa_1-2" data-name="Capa 1"><path d="M6.74,0c1.31,1.13,2.71,2.17,3.93,3.4q184.58,184.52,369.1,369.06a23.19,23.19,0,0,1,2.31,2.45,5.1,5.1,0,0,1-3.37,8.25,23.19,23.19,0,0,1-3.73.09q-183.35,0-366.68.06c-3.29,0-6.11-.47-8.3-3.05V0ZM124.53,372.62v-4.21c0-10.35,0-20.71,0-31.06,0-4.42,1.93-6.71,5.32-6.64s5,2.2,5,6.51c0,10.47,0,20.95,0,31.43v3.9h17.06c0-5.12-.15-10,.08-14.81.08-1.59.71-3.69,1.85-4.55s3.93-1.54,5-.83a8.05,8.05,0,0,1,3.29,5.22c.45,4.92.15,9.9.15,15h16.88v-4.32q0-15.15,0-30.31c0-4.88,1.67-7.17,5.11-7.22s5.2,2.2,5.21,7q0,13.49,0,26.95v7.93h17.06c0-5.15-.06-10.11,0-15.06.06-3.79,2.53-6.23,5.77-5.71s4.56,2.78,4.59,5.88c0,4.94,0,9.88,0,14.77h16.88V339.65c0-6.51,1.47-9,5.28-8.94s5,2.34,5.05,8.7v33.16h17.06c0-5.35-.06-10.45,0-15.54a4.84,4.84,0,0,1,4.45-5.15c2.88-.41,4.84,1.08,5.61,3.82a15.71,15.71,0,0,1,.29,4.07c0,4.31,0,8.61,0,12.82h16.89v-4.66c0-10.48-.05-21,.05-31.43,0-3.83,2.16-5.91,5.38-5.78s4.83,2.11,4.87,5.86c.06,7.86,0,15.72,0,23.58v12.33h65L10.62,19.27V84.4h9.46c9,0,18,0,26.94,0,3.2,0,5.25,1.52,5.49,4.86.22,3.1-1.82,5.1-5.37,5.4-1,.09-2,0-3,0q-14.78,0-29.56,0c-1.32,0-2.63.12-4.18.2v16.68c4.86,0,9.32,0,13.78,0,4.78,0,7.19,1.75,7.25,5.15S29.12,122,24.37,122c-4.57,0-9.14,0-13.7,0v17H15q15.35,0,30.69,0c4.61,0,6.8,1.62,6.87,5s-2.28,5.27-7,5.28c-8.11,0-16.22,0-24.33,0H10.67v16.89c4.85,0,9.44,0,14,0,4.36,0,6.76,2,6.73,5.29s-2.39,5.09-6.83,5.11c-4.69,0-9.37,0-13.88,0v17.06c1.67,0,3,0,4.39,0H46.93c3.2,0,5.32,1.42,5.56,4.76.22,3.12-1.53,4.89-4.51,5.42a19.81,19.81,0,0,1-3.36.16c-10,0-20,0-29.94,0-1.32,0-2.65.11-4,.17V221c4.93,0,9.54,0,14.15,0,4.16,0,6.47,1.85,6.57,5,.1,3.37-2.26,5.28-6.62,5.31-4.7,0-9.4,0-14.17,0v17.06H23.14c8,0,16,0,24,0,3.23,0,5.28,1.6,5.41,4.92s-1.92,5-5,5.35a28.94,28.94,0,0,1-3.36.07H14.52c-1.31,0-2.61.12-4.11.2V275.6c5.06,0,9.66,0,14.25,0,4.4,0,6.78,1.9,6.78,5.22S29.09,286,24.65,286c-4.68,0-9.37,0-13.94,0v17h4.36c10.48,0,21,0,31.44,0,4.54,0,7.18,3.26,5.74,6.92-1.14,2.91-3.66,3.43-6.45,3.43-9.36,0-18.72,0-28.07,0h-7v59.17H69.86V368.2c0-10.36,0-20.71,0-31.06,0-4.21,1.87-6.4,5.16-6.42s5.13,2.13,5.15,6.33c0,9.48,0,19,0,28.45v7.12H97.29c0-5.3-.31-10.41.16-15.45a6.92,6.92,0,0,1,3.53-4.91c1.41-.57,4,.6,5.45,1.78,1,.8,1.14,2.93,1.18,4.49.15,4.68.06,9.37.06,14.09Z"/><path d="M142.22,313.39H78.27c-7.09,0-8.41-1.28-8.41-8.2q0-64.15,0-128.29a14,14,0,0,1,.84-5.45c1.2-2.72,4.84-3.37,7.38-1.58a18.89,18.89,0,0,1,2.46,2.28L210.43,302a28.28,28.28,0,0,1,2.83,3,5,5,0,0,1-3,8.17,18.6,18.6,0,0,1-4.09.25ZM80.43,187.5V302.7H195.61Z"/><polygon class="cls-1" points="0 0 384 0 384 384 0 384 0 0 0 0"/></g></g></svg>