<svg xmlns="http://www.w3.org/2000/svg" viewBox="0 0 384 383.3"><g id="Capa_2" data-name="Capa 2"><g id="Capa_1-2" data-name="Capa 1"><path d="M117.75,383.3c-2.79-1-5.79-1.72-8.35-3.18-9-5.13-13.41-13-13.4-23.42q0-66.79,0-133.59,0-49.79,0-99.55c0-17.18,10.58-27.72,27.82-27.72h228.7c18.84,0,25,4.28,31.48,21.71v244c-1.69,3.8-3,7.87-5.18,11.33-3.8,5.93-10,8.64-16.57,10.38ZM360.56,109H119.33l120.61,120.4ZM229.36,239.8,109.16,119.66V359.79C149.45,319.56,189.7,279.38,229.36,239.8Zm21.25-.36,120.24,120V119.32C330.56,159.57,290.34,199.76,250.61,239.44ZM360.15,370.25,240.09,250.5l-120,119.75Z"/><path d="M0,164q16.38-19.69,32.78-39.38c3.53-4.22,7.8-4.15,11.4.13q15.17,18.06,30.23,36.21c3,3.64,3,7.45.15,10s-6.86,1.9-10-1.88c-5.72-6.77-11.38-13.59-17.07-20.38-.61-.73-1.27-1.42-2.34-2.6V333.26c1.65-1.93,2.89-3.36,4.11-4.82,5.12-6.13,10.21-12.29,15.36-18.39,3.06-3.62,6.84-4.33,9.78-1.95s3.12,6.42,0,10.22q-15.07,18.14-30.24,36.21c-3.58,4.26-7.64,4.4-11.07.31-11-13.17-22-26.43-33-39.66v-4.49c4.77-5.54,8.22-5.47,13,.24q7.9,9.49,15.82,19c.83,1,1.69,1.92,2.94,3.33V145.78C25.12,153.69,19,160.93,13,168.19c-4.77,5.71-8.21,5.79-13,.26Z"/><path d="M0,375.07c1.82-3.49,4.68-4.61,8.6-4.59,19.71.14,39.42.1,59.13,0,3.68,0,7.18.19,8.62,4.27,1.33,3.79-.79,6.35-3.6,8.51H0Z"/><path d="M384,72.63c-.2.12-.5.19-.6.37-1.79,3.16-4.56,4.28-7.9,3.2-3.49-1.12-4.36-4-4.3-7.43.09-6.09,0-12.19,0-18.28,0-13.93.06-27.86,0-41.78,0-3.78.54-7.1,4.61-8.37s6.3,1.13,8.2,4.16Z"/><path d="M0,100.33c1.86-3.45,4.73-4.59,8.64-4.56,20.11.14,40.22,0,60.32.07,4.45,0,7,1.75,7.61,5.09.78,4.21-1.95,7.54-6.51,7.62-6.5.12-13,0-19.49,0-14,0-28-.1-42,.06-3.91,0-6.78-1.09-8.61-4.58Z"/><path d="M146.09,45.05,167.4,62.77c1,.88,2.15,1.73,3.12,2.69,2.6,2.58,2.91,6.2.82,8.77a6.3,6.3,0,0,1-9,.87c-5.66-4.51-11.16-9.23-16.73-13.85-6.82-5.67-13.66-11.31-20.46-17-4.73-4-4.74-7.82,0-11.76q18.27-15.26,36.57-30.44c2.57-2.14,5.28-2.82,8.23-.93a5.61,5.61,0,0,1,2.54,6.82,10.72,10.72,0,0,1-3.22,4.39c-6.45,5.52-13,10.89-19.55,16.32-1,.84-2,1.72-3.63,3.12H333.83c-1.38-1.25-2.28-2.14-3.25-2.95q-9.91-8.26-19.87-16.52c-3.74-3.12-4.49-7-1.93-10s6.18-3,9.94.08Q337,17.53,355.29,32.78c4.19,3.51,4.25,7.55.08,11q-18.5,15.54-37.15,30.89c-3.33,2.75-7.3,2.39-9.63-.57-2.19-2.77-1.67-6.53,1.53-9.24,6.95-5.89,14-11.68,21-17.52.73-.61,1.42-1.27,2.61-2.34Z"/><path d="M108.78,38.19c0,10.22,0,20.45,0,30.68,0,4.89-2.26,7.6-6.23,7.68-4.12.08-6.53-2.72-6.53-7.77q0-30.49,0-61C96,3,98.4.13,102.25,0s6.51,2.88,6.52,7.84Q108.8,23,108.78,38.19Z"/></g></g></svg>